<?xml version="1.0" encoding="UTF-8"?>
<!DOCTYPE svg PUBLIC "-//W3C//DTD SVG 1.1//EN" "http://www.w3.org/Graphics/SVG/1.1/DTD/svg11.dtd">
<svg xmlns="http://www.w3.org/2000/svg" version="1.1" width="577px" height="433px" style="shape-rendering:geometricPrecision; text-rendering:geometricPrecision; image-rendering:optimizeQuality; fill-rule:evenodd; clip-rule:evenodd" xmlns:xlink="http://www.w3.org/1999/xlink">
<g><path style="opacity:0.741" fill="#f2706b" d="M 215.5,72.5 C 181.329,72.1683 147.329,72.5017 113.5,73.5C 112.957,73.44 112.624,73.1067 112.5,72.5C 146.998,71.1698 181.331,71.1698 215.5,72.5 Z"/></g>
<g><path style="opacity:1" fill="#ee403a" d="M 215.5,72.5 C 215.427,74.0269 216.094,75.0269 217.5,75.5C 218.674,76.5137 219.34,77.847 219.5,79.5C 219.738,81.4044 220.738,82.7377 222.5,83.5C 223.6,84.6049 224.267,85.9382 224.5,87.5C 224.427,89.0269 225.094,90.0269 226.5,90.5C 228.083,92.6626 229.416,94.9959 230.5,97.5C 230.427,99.0269 231.094,100.027 232.5,100.5C 236.251,104.995 239.251,109.995 241.5,115.5C 241.427,117.027 242.094,118.027 243.5,118.5C 247.83,125.825 252.163,133.159 256.5,140.5C 256.427,142.027 257.094,143.027 258.5,143.5C 260.083,145.663 261.416,147.996 262.5,150.5C 262.427,152.027 263.094,153.027 264.5,153.5C 265.338,153.842 265.672,154.508 265.5,155.5C 265.427,157.027 266.094,158.027 267.5,158.5C 268.338,158.842 268.672,159.508 268.5,160.5C 268.427,162.027 269.094,163.027 270.5,163.5C 273.335,167.164 275.668,171.164 277.5,175.5C 277.427,177.027 278.094,178.027 279.5,178.5C 280.338,178.842 280.672,179.508 280.5,180.5C 280.427,182.027 281.094,183.027 282.5,183.5C 283.338,183.842 283.672,184.508 283.5,185.5C 283.427,187.027 284.094,188.027 285.5,188.5C 287.588,190.336 288.921,192.669 289.5,195.5C 289.427,197.027 290.094,198.027 291.5,198.5C 292.728,197.694 293.728,196.694 294.5,195.5C 295.906,195.027 296.573,194.027 296.5,192.5C 302.442,181.237 308.775,170.237 315.5,159.5C 316.906,159.027 317.573,158.027 317.5,156.5C 317.733,154.938 318.4,153.605 319.5,152.5C 320.906,152.027 321.573,151.027 321.5,149.5C 322.584,146.996 323.917,144.663 325.5,142.5C 326.906,142.027 327.573,141.027 327.5,139.5C 327.66,137.847 328.326,136.514 329.5,135.5C 330.906,135.027 331.573,134.027 331.5,132.5C 333.664,127.5 336.331,122.833 339.5,118.5C 340.906,118.027 341.573,117.027 341.5,115.5C 341.66,113.847 342.326,112.514 343.5,111.5C 344.906,111.027 345.573,110.027 345.5,108.5C 345.66,106.847 346.326,105.514 347.5,104.5C 348.906,104.027 349.573,103.027 349.5,101.5C 349.66,99.847 350.326,98.5137 351.5,97.5C 352.499,145.664 352.832,193.997 352.5,242.5C 330.023,281.445 307.523,320.445 285,359.5C 284.107,360.711 283.274,360.711 282.5,359.5C 279.65,355.801 277.317,351.801 275.5,347.5C 275.715,345.821 275.048,344.821 273.5,344.5C 270.022,338.074 266.355,331.74 262.5,325.5C 262.715,323.821 262.048,322.821 260.5,322.5C 256.61,316.398 252.943,310.065 249.5,303.5C 249.715,301.821 249.048,300.821 247.5,300.5C 245.929,298.365 244.596,296.032 243.5,293.5C 243.715,291.821 243.048,290.821 241.5,290.5C 240.833,289.167 240.167,287.833 239.5,286.5C 239.715,284.821 239.048,283.821 237.5,283.5C 236.662,283.158 236.328,282.492 236.5,281.5C 236.715,279.821 236.048,278.821 234.5,278.5C 232.929,276.365 231.596,274.032 230.5,271.5C 230.715,269.821 230.048,268.821 228.5,268.5C 224.581,262.33 220.914,255.997 217.5,249.5C 217.715,247.821 217.048,246.821 215.5,246.5C 209.581,236.998 203.914,227.331 198.5,217.5C 198.715,215.821 198.048,214.821 196.5,214.5C 194.167,210.5 191.833,206.5 189.5,202.5C 189.715,200.821 189.048,199.821 187.5,199.5C 186.833,198.167 186.167,196.833 185.5,195.5C 185.715,193.821 185.048,192.821 183.5,192.5C 181.914,190.33 180.58,187.996 179.5,185.5C 179.715,183.821 179.048,182.821 177.5,182.5C 177.167,181.833 176.833,181.167 176.5,180.5C 176.715,178.821 176.048,177.821 174.5,177.5C 171.833,172.833 169.167,168.167 166.5,163.5C 166.715,161.821 166.048,160.821 164.5,160.5C 160.581,154.33 156.914,147.997 153.5,141.5C 153.715,139.821 153.048,138.821 151.5,138.5C 147.581,132.33 143.914,125.997 140.5,119.5C 140.715,117.821 140.048,116.821 138.5,116.5C 136.167,112.5 133.833,108.5 131.5,104.5C 131.715,102.821 131.048,101.821 129.5,101.5C 126.833,96.8333 124.167,92.1667 121.5,87.5C 121.715,85.8212 121.048,84.8212 119.5,84.5C 117.234,80.9663 115.234,77.2996 113.5,73.5C 147.329,72.5017 181.329,72.1683 215.5,72.5 Z"/></g>
<g><path style="opacity:0.341" fill="#fcbeba" d="M 215.5,72.5 C 216.906,72.9731 217.573,73.9731 217.5,75.5C 216.094,75.0269 215.427,74.0269 215.5,72.5 Z"/></g>
<g><path style="opacity:0.694" fill="#fca39b" d="M 219.5,79.5 C 221.262,80.2623 222.262,81.5956 222.5,83.5C 220.738,82.7377 219.738,81.4044 219.5,79.5 Z"/></g>
<g><path style="opacity:0.918" fill="#fea69c" d="M 119.5,84.5 C 121.048,84.8212 121.715,85.8212 121.5,87.5C 120.599,86.7095 119.932,85.7095 119.5,84.5 Z"/></g>
<g><path style="opacity:0.424" fill="#fcb1ab" d="M 224.5,87.5 C 225.906,87.9731 226.573,88.9731 226.5,90.5C 225.094,90.0269 224.427,89.0269 224.5,87.5 Z"/></g>
<g><path style="opacity:0.534" fill="#f69895" d="M 352.5,242.5 C 352.832,193.997 352.499,145.664 351.5,97.5C 351.369,96.6236 351.702,95.9569 352.5,95.5C 353.831,144.665 353.831,193.665 352.5,242.5 Z"/></g>
<g><path style="opacity:0.246" fill="#fbcecc" d="M 113.5,99.5 C 112.501,185.998 112.167,272.665 112.5,359.5C 112.5,359.833 112.5,360.167 112.5,360.5C 111.168,273.332 111.168,185.999 112.5,98.5C 113.107,98.6236 113.44,98.9569 113.5,99.5 Z"/></g>
<g><path style="opacity:0.373" fill="#fcb8b3" d="M 230.5,97.5 C 231.906,97.9731 232.573,98.9731 232.5,100.5C 231.094,100.027 230.427,99.0269 230.5,97.5 Z"/></g>
<g><path style="opacity:1" fill="#ee3e38" d="M 113.5,99.5 C 115.008,101.181 116.008,103.181 116.5,105.5C 116.427,107.027 117.094,108.027 118.5,108.5C 118.427,110.027 119.094,111.027 120.5,111.5C 121.338,111.842 121.672,112.508 121.5,113.5C 121.427,115.027 122.094,116.027 123.5,116.5C 126.669,120.833 129.336,125.5 131.5,130.5C 131.427,132.027 132.094,133.027 133.5,133.5C 136.335,137.164 138.668,141.164 140.5,145.5C 140.427,147.027 141.094,148.027 142.5,148.5C 143.674,149.514 144.34,150.847 144.5,152.5C 144.427,154.027 145.094,155.027 146.5,155.5C 147.89,156.899 148.89,158.566 149.5,160.5C 149.427,162.027 150.094,163.027 151.5,163.5C 152.674,164.514 153.34,165.847 153.5,167.5C 153.427,169.027 154.094,170.027 155.5,170.5C 157.083,172.663 158.416,174.996 159.5,177.5C 159.427,179.027 160.094,180.027 161.5,180.5C 162.338,180.842 162.672,181.508 162.5,182.5C 162.427,184.027 163.094,185.027 164.5,185.5C 166.083,187.663 167.416,189.996 168.5,192.5C 168.427,194.027 169.094,195.027 170.5,195.5C 171.674,196.514 172.34,197.847 172.5,199.5C 172.427,201.027 173.094,202.027 174.5,202.5C 175.338,202.842 175.672,203.508 175.5,204.5C 175.427,206.027 176.094,207.027 177.5,207.5C 179.588,209.336 180.921,211.669 181.5,214.5C 181.427,216.027 182.094,217.027 183.5,217.5C 184.338,217.842 184.672,218.508 184.5,219.5C 184.427,221.027 185.094,222.027 186.5,222.5C 187.338,222.842 187.672,223.508 187.5,224.5C 187.427,226.027 188.094,227.027 189.5,227.5C 192.335,231.164 194.668,235.164 196.5,239.5C 196.427,241.027 197.094,242.027 198.5,242.5C 199.737,243.965 200.737,245.632 201.5,247.5C 201.5,284.833 201.5,322.167 201.5,359.5C 171.833,359.5 142.167,359.5 112.5,359.5C 112.167,272.665 112.501,185.998 113.5,99.5 Z"/></g>
<g><path style="opacity:0.918" fill="#fea59c" d="M 129.5,101.5 C 131.048,101.821 131.715,102.821 131.5,104.5C 130.599,103.71 129.932,102.71 129.5,101.5 Z"/></g>
<g><path style="opacity:0.357" fill="#fdbab5" d="M 349.5,101.5 C 349.573,103.027 348.906,104.027 347.5,104.5C 347.427,102.973 348.094,101.973 349.5,101.5 Z"/></g>
<g><path style="opacity:0.631" fill="#fb9c94" d="M 116.5,105.5 C 117.906,105.973 118.573,106.973 118.5,108.5C 117.094,108.027 116.427,107.027 116.5,105.5 Z"/></g>
<g><path style="opacity:0.373" fill="#fcb7b3" d="M 118.5,108.5 C 119.906,108.973 120.573,109.973 120.5,111.5C 119.094,111.027 118.427,110.027 118.5,108.5 Z"/></g>
<g><path style="opacity:0.42" fill="#fbafaa" d="M 345.5,108.5 C 345.573,110.027 344.906,111.027 343.5,111.5C 343.427,109.973 344.094,108.973 345.5,108.5 Z"/></g>
<g><path style="opacity:0.31" fill="#fcc1bd" d="M 121.5,113.5 C 122.906,113.973 123.573,114.973 123.5,116.5C 122.094,116.027 121.427,115.027 121.5,113.5 Z"/></g>
<g><path style="opacity:0.925" fill="#fda096" d="M 138.5,116.5 C 140.048,116.821 140.715,117.821 140.5,119.5C 139.599,118.71 138.932,117.71 138.5,116.5 Z"/></g>
<g><path style="opacity:0.302" fill="#fdc4c0" d="M 241.5,115.5 C 242.906,115.973 243.573,116.973 243.5,118.5C 242.094,118.027 241.427,117.027 241.5,115.5 Z"/></g>
<g><path style="opacity:0.561" fill="#faa39d" d="M 341.5,115.5 C 341.573,117.027 340.906,118.027 339.5,118.5C 339.427,116.973 340.094,115.973 341.5,115.5 Z"/></g>
<g><path style="opacity:0.49" fill="#fbb0ab" d="M 131.5,130.5 C 132.906,130.973 133.573,131.973 133.5,133.5C 132.094,133.027 131.427,132.027 131.5,130.5 Z"/></g>
<g><path style="opacity:0.357" fill="#fcb9b5" d="M 331.5,132.5 C 331.573,134.027 330.906,135.027 329.5,135.5C 329.427,133.973 330.094,132.973 331.5,132.5 Z"/></g>
<g><path style="opacity:0.91" fill="#fea69d" d="M 151.5,138.5 C 153.048,138.821 153.715,139.821 153.5,141.5C 152.599,140.71 151.932,139.71 151.5,138.5 Z"/></g>
<g><path style="opacity:0.357" fill="#fcb9b5" d="M 327.5,139.5 C 327.573,141.027 326.906,142.027 325.5,142.5C 325.427,140.973 326.094,139.973 327.5,139.5 Z"/></g>
<g><path style="opacity:0.341" fill="#fcbdb9" d="M 256.5,140.5 C 257.906,140.973 258.573,141.973 258.5,143.5C 257.094,143.027 256.427,142.027 256.5,140.5 Z"/></g>
<g><path style="opacity:0.361" fill="#fcbbb6" d="M 140.5,145.5 C 141.906,145.973 142.573,146.973 142.5,148.5C 141.094,148.027 140.427,147.027 140.5,145.5 Z"/></g>
<g><path style="opacity:0.361" fill="#fcb9b4" d="M 321.5,149.5 C 321.573,151.027 320.906,152.027 319.5,152.5C 319.427,150.973 320.094,149.973 321.5,149.5 Z"/></g>
<g><path style="opacity:0.29" fill="#fdc0bc" d="M 262.5,150.5 C 263.906,150.973 264.573,151.973 264.5,153.5C 263.094,153.027 262.427,152.027 262.5,150.5 Z"/></g>
<g><path style="opacity:0.439" fill="#fbafaa" d="M 144.5,152.5 C 145.906,152.973 146.573,153.973 146.5,155.5C 145.094,155.027 144.427,154.027 144.5,152.5 Z"/></g>
<g><path style="opacity:0.431" fill="#fcafaa" d="M 265.5,155.5 C 266.906,155.973 267.573,156.973 267.5,158.5C 266.094,158.027 265.427,157.027 265.5,155.5 Z"/></g>
<g><path style="opacity:0.357" fill="#fcb9b5" d="M 317.5,156.5 C 317.573,158.027 316.906,159.027 315.5,159.5C 315.427,157.973 316.094,156.973 317.5,156.5 Z"/></g>
<g><path style="opacity:0.886" fill="#ffaca3" d="M 164.5,160.5 C 166.048,160.821 166.715,161.821 166.5,163.5C 165.599,162.71 164.932,161.71 164.5,160.5 Z"/></g>
<g><path style="opacity:0.361" fill="#fcbbb6" d="M 149.5,160.5 C 150.906,160.973 151.573,161.973 151.5,163.5C 150.094,163.027 149.427,162.027 149.5,160.5 Z"/></g>
<g><path style="opacity:0.427" fill="#fbb1ac" d="M 268.5,160.5 C 269.906,160.973 270.573,161.973 270.5,163.5C 269.094,163.027 268.427,162.027 268.5,160.5 Z"/></g>
<g><path style="opacity:0.431" fill="#fbafaa" d="M 153.5,167.5 C 154.906,167.973 155.573,168.973 155.5,170.5C 154.094,170.027 153.427,169.027 153.5,167.5 Z"/></g>
<g><path style="opacity:0.882" fill="#ffaca3" d="M 174.5,177.5 C 176.048,177.821 176.715,178.821 176.5,180.5C 175.599,179.71 174.932,178.71 174.5,177.5 Z"/></g>
<g><path style="opacity:0.408" fill="#fcb3ae" d="M 277.5,175.5 C 278.906,175.973 279.573,176.973 279.5,178.5C 278.094,178.027 277.427,177.027 277.5,175.5 Z"/></g>
<g><path style="opacity:0.4" fill="#fcb4af" d="M 159.5,177.5 C 160.906,177.973 161.573,178.973 161.5,180.5C 160.094,180.027 159.427,179.027 159.5,177.5 Z"/></g>
<g><path style="opacity:0.894" fill="#ffaea5" d="M 177.5,182.5 C 179.048,182.821 179.715,183.821 179.5,185.5C 178.599,184.71 177.932,183.71 177.5,182.5 Z"/></g>
<g><path style="opacity:0.467" fill="#fbaaa4" d="M 280.5,180.5 C 281.906,180.973 282.573,181.973 282.5,183.5C 281.094,183.027 280.427,182.027 280.5,180.5 Z"/></g>
<g><path style="opacity:0.435" fill="#fbafaa" d="M 162.5,182.5 C 163.906,182.973 164.573,183.973 164.5,185.5C 163.094,185.027 162.427,184.027 162.5,182.5 Z"/></g>
<g><path style="opacity:0.478" fill="#fbaaa5" d="M 283.5,185.5 C 284.906,185.973 285.573,186.973 285.5,188.5C 284.094,188.027 283.427,187.027 283.5,185.5 Z"/></g>
<g><path style="opacity:0.922" fill="#ffa79e" d="M 183.5,192.5 C 185.048,192.821 185.715,193.821 185.5,195.5C 184.599,194.71 183.932,193.71 183.5,192.5 Z"/></g>
<g><path style="opacity:0.404" fill="#fcb4af" d="M 168.5,192.5 C 169.906,192.973 170.573,193.973 170.5,195.5C 169.094,195.027 168.427,194.027 168.5,192.5 Z"/></g>
<g><path style="opacity:0.431" fill="#fcb5b1" d="M 296.5,192.5 C 296.573,194.027 295.906,195.027 294.5,195.5C 294.427,193.973 295.094,192.973 296.5,192.5 Z"/></g>
<g><path style="opacity:0.408" fill="#fbb2ae" d="M 289.5,195.5 C 290.906,195.973 291.573,196.973 291.5,198.5C 290.094,198.027 289.427,197.027 289.5,195.5 Z"/></g>
<g><path style="opacity:0.89" fill="#ffada4" d="M 187.5,199.5 C 189.048,199.821 189.715,200.821 189.5,202.5C 188.599,201.71 187.932,200.71 187.5,199.5 Z"/></g>
<g><path style="opacity:0.475" fill="#fba9a3" d="M 172.5,199.5 C 173.906,199.973 174.573,200.973 174.5,202.5C 173.094,202.027 172.427,201.027 172.5,199.5 Z"/></g>
<g><path style="opacity:0.443" fill="#fbaea9" d="M 175.5,204.5 C 176.906,204.973 177.573,205.973 177.5,207.5C 176.094,207.027 175.427,206.027 175.5,204.5 Z"/></g>
<g><path style="opacity:0.898" fill="#ffa99f" d="M 196.5,214.5 C 198.048,214.821 198.715,215.821 198.5,217.5C 197.599,216.71 196.932,215.71 196.5,214.5 Z"/></g>
<g><path style="opacity:0.471" fill="#fba9a3" d="M 181.5,214.5 C 182.906,214.973 183.573,215.973 183.5,217.5C 182.094,217.027 181.427,216.027 181.5,214.5 Z"/></g>
<g><path style="opacity:0.447" fill="#fbaea9" d="M 184.5,219.5 C 185.906,219.973 186.573,220.973 186.5,222.5C 185.094,222.027 184.427,221.027 184.5,219.5 Z"/></g>
<g><path style="opacity:0.365" fill="#fcb9b4" d="M 187.5,224.5 C 188.906,224.973 189.573,225.973 189.5,227.5C 188.094,227.027 187.427,226.027 187.5,224.5 Z"/></g>
<g><path style="opacity:0.365" fill="#fcb9b4" d="M 196.5,239.5 C 197.906,239.973 198.573,240.973 198.5,242.5C 197.094,242.027 196.427,241.027 196.5,239.5 Z"/></g>
<g><path style="opacity:0.925" fill="#fea49a" d="M 215.5,246.5 C 217.048,246.821 217.715,247.821 217.5,249.5C 216.599,248.71 215.932,247.71 215.5,246.5 Z"/></g>
<g><path style="opacity:0.918" fill="#ffa59b" d="M 228.5,268.5 C 230.048,268.821 230.715,269.821 230.5,271.5C 229.599,270.71 228.932,269.71 228.5,268.5 Z"/></g>
<g><path style="opacity:0.925" fill="#ffa399" d="M 234.5,278.5 C 236.048,278.821 236.715,279.821 236.5,281.5C 235.599,280.71 234.932,279.71 234.5,278.5 Z"/></g>
<g><path style="opacity:0.937" fill="#fea196" d="M 237.5,283.5 C 239.048,283.821 239.715,284.821 239.5,286.5C 238.599,285.71 237.932,284.71 237.5,283.5 Z"/></g>
<g><path style="opacity:0.859" fill="#ffaea6" d="M 241.5,290.5 C 243.048,290.821 243.715,291.821 243.5,293.5C 242.599,292.71 241.932,291.71 241.5,290.5 Z"/></g>
<g><path style="opacity:0.937" fill="#fea095" d="M 247.5,300.5 C 249.048,300.821 249.715,301.821 249.5,303.5C 248.599,302.71 247.932,301.71 247.5,300.5 Z"/></g>
<g><path style="opacity:0.933" fill="#fea297" d="M 260.5,322.5 C 262.048,322.821 262.715,323.821 262.5,325.5C 261.599,324.71 260.932,323.71 260.5,322.5 Z"/></g>
<g><path style="opacity:0.875" fill="#ffaba3" d="M 273.5,344.5 C 275.048,344.821 275.715,345.821 275.5,347.5C 274.599,346.71 273.932,345.71 273.5,344.5 Z"/></g>
<g><path style="opacity:0.757" fill="#f37a75" d="M 201.5,247.5 C 202.498,284.996 202.832,322.663 202.5,360.5C 172.5,360.5 142.5,360.5 112.5,360.5C 112.5,360.167 112.5,359.833 112.5,359.5C 142.167,359.5 171.833,359.5 201.5,359.5C 201.5,322.167 201.5,284.833 201.5,247.5 Z"/></g>
<g><path style="opacity:0.753" fill="#fdb3ae" d="M 367.5,71.5 C 367.5,167.5 367.5,263.5 367.5,359.5C 399.5,359.5 431.5,359.5 463.5,359.5C 463.5,263.5 463.5,167.5 463.5,71.5C 464.499,167.665 464.833,263.999 464.5,360.5C 431.833,360.5 399.167,360.5 366.5,360.5C 366.167,263.999 366.501,167.665 367.5,71.5 Z"/></g>
<g><path style="opacity:1" fill="#ee3e38" d="M 367.5,71.5 C 399.5,71.5 431.5,71.5 463.5,71.5C 463.5,167.5 463.5,263.5 463.5,359.5C 431.5,359.5 399.5,359.5 367.5,359.5C 367.5,263.5 367.5,167.5 367.5,71.5 Z"/></g>
</svg>
